<svg xmlns="http://www.w3.org/2000/svg" width='100%' height='auto' viewBox="0 0 862 445" fill="none"><path d="m265.893 6.528-.026 1 .026-1c-31.319-.803-58.994 12.597-77.142 34.353-2.267 2.717-6.588 2.746-8.856.053-19.264-22.864-47.752-37.841-79.218-38.65-28.32-.728-54.224 13.976-72.489 48.147C9.953 84.547-.7 138.101 1.283 215.289c1.984 77.178 13.943 131.6 32.47 166.943 18.549 35.384 43.735 51.719 72.064 52.448 31.317.805 58.993-12.597 77.141-34.353 2.267-2.717 6.588-2.746 8.857-.053 19.263 22.867 47.749 37.842 79.217 38.648 31.317.805 58.992-12.594 77.14-34.349 2.267-2.717 6.588-2.747 8.857-.054 19.263 22.864 47.752 37.842 79.217 38.651 31.551.81 59.254-21.103 77.279-44.292 2.151-2.767 6.435-2.81 8.666-.091 19.216 23.424 47.711 41.818 79.269 42.626 31.51.81 59.202-19.393 77.253-42.3 2.17-2.754 6.47-2.801 8.744-.102 19.262 22.864 47.75 37.84 79.217 38.651 14.117.362 27.131-2.846 38.687-10.775 11.547-7.922 21.564-20.506 29.788-38.77 16.434-36.494 25.805-95.88 25.805-186.854 0-68.317-10.678-116.904-28.437-148.628-17.787-31.774-42.695-46.643-70.977-47.37-31.317-.804-58.994 12.595-77.143 34.351-2.267 2.717-6.588 2.747-8.857.054-19.261-22.866-47.751-37.843-79.216-38.651-15.833-.407-30.679 5.745-43.785 14.927-13.107 9.182-24.53 21.434-33.547 33.343-2.104 2.779-6.386 2.84-8.664.136-19.265-22.866-47.753-37.843-79.219-38.652-31.317-.804-58.994 12.6-77.144 34.354-2.267 2.716-6.588 2.746-8.857.053-19.261-22.866-47.749-37.843-79.215-38.652Z" fill="#D9D9D9" stroke="#FFD7E4" stroke-width="2"/></svg>